<svg width="100" height="100" viewBox="0 0 100 100" fill="none" xmlns="http://www.w3.org/2000/svg">
<style>
  rect { fill: #3F51B5; }
  @media (prefers-color-scheme: dark) { rect { fill: #424242; } }
</style>
<rect width="100" height="100" rx="10" fill="#3F51B5"/>
<path d="M49.6389 87.08C46.0389 87.08 42.9789 86.828 40.4589 86.324C37.9389 85.82 35.6709 85.1 33.6549 84.164C31.6389 83.228 29.4429 82.148 27.0669 80.924V72.5C29.3709 74.444 32.4669 76.172 36.3549 77.684C40.2429 79.196 44.7789 79.952 49.9629 79.952C55.4349 79.952 59.3949 78.8 61.8429 76.496C64.3629 74.12 65.6229 71.132 65.6229 67.532C65.6229 64.508 64.7949 62.096 63.1389 60.296C61.4829 58.424 59.3589 56.912 56.7669 55.76C54.1749 54.536 51.4389 53.384 48.5589 52.304C46.1109 51.44 43.6629 50.54 41.2149 49.604C38.8389 48.596 36.6789 47.372 34.7349 45.932C32.7909 44.42 31.2429 42.512 30.0909 40.208C28.9389 37.832 28.3629 34.88 28.3629 31.352C28.3629 29.408 28.7229 27.356 29.4429 25.196C30.2349 23.036 31.4589 21.02 33.1149 19.148C34.8429 17.276 37.1109 15.764 39.9189 14.612C42.7989 13.46 46.2909 12.884 50.3949 12.884C53.2029 12.884 55.5789 13.1 57.5229 13.532C59.5389 13.892 61.4469 14.468 63.2469 15.26C65.0469 15.98 67.0629 16.88 69.2949 17.96V25.952C67.4229 24.872 65.6229 23.9 63.8949 23.036C62.2389 22.1 60.3669 21.38 58.2789 20.876C56.2629 20.3 53.7789 20.012 50.8269 20.012C45.5709 20.012 41.8269 21.128 39.5949 23.36C37.3629 25.52 36.2469 28.004 36.2469 30.812C36.2469 33.764 36.8949 36.104 38.1909 37.832C39.5589 39.56 41.4309 41 43.8069 42.152C46.2549 43.232 49.0629 44.312 52.2309 45.392C54.7509 46.256 57.2709 47.228 59.7909 48.308C62.3109 49.316 64.5789 50.612 66.5949 52.196C68.6829 53.708 70.3389 55.652 71.5629 58.028C72.8589 60.332 73.5069 63.212 73.5069 66.668C73.5069 69.908 72.7869 73.112 71.3469 76.28C69.9069 79.376 67.4589 81.968 64.0029 84.056C60.5469 86.072 55.7589 87.08 49.6389 87.08Z" fill="white"/>
<rect y="45" width="100" height="10" fill="#3F51B5"/>
</svg>
