<svg width="256" height="100" viewBox="0 0 256 100" fill="none" xmlns="http://www.w3.org/2000/svg">
<path d="M105.864 42.36C104.664 42.36 103.644 42.276 102.804 42.108C101.964 41.94 101.208 41.7 100.536 41.388C99.864 41.076 99.132 40.716 98.34 40.308V37.5C99.108 38.148 100.14 38.724 101.436 39.228C102.732 39.732 104.244 39.984 105.972 39.984C107.796 39.984 109.116 39.6 109.932 38.832C110.772 38.04 111.192 37.044 111.192 35.844C111.192 34.836 110.916 34.032 110.364 33.432C109.812 32.808 109.104 32.304 108.24 31.92C107.376 31.512 106.464 31.128 105.504 30.768C104.688 30.48 103.872 30.18 103.056 29.868C102.264 29.532 101.544 29.124 100.896 28.644C100.248 28.14 99.732 27.504 99.348 26.736C98.964 25.944 98.772 24.96 98.772 23.784C98.772 23.136 98.892 22.452 99.132 21.732C99.396 21.012 99.804 20.34 100.356 19.716C100.932 19.092 101.688 18.588 102.624 18.204C103.584 17.82 104.748 17.628 106.116 17.628C107.052 17.628 107.844 17.7 108.492 17.844C109.164 17.964 109.8 18.156 110.4 18.42C111 18.66 111.672 18.96 112.416 19.32V21.984C111.792 21.624 111.192 21.3 110.616 21.012C110.064 20.7 109.44 20.46 108.744 20.292C108.072 20.1 107.244 20.004 106.26 20.004C104.508 20.004 103.26 20.376 102.516 21.12C101.772 21.84 101.4 22.668 101.4 23.604C101.4 24.588 101.616 25.368 102.048 25.944C102.504 26.52 103.128 27 103.92 27.384C104.736 27.744 105.672 28.104 106.728 28.464C107.568 28.752 108.408 29.076 109.248 29.436C110.088 29.772 110.844 30.204 111.516 30.732C112.212 31.236 112.764 31.884 113.172 32.676C113.604 33.444 113.82 34.404 113.82 35.556C113.82 36.636 113.58 37.704 113.1 38.76C112.62 39.792 111.804 40.656 110.652 41.352C109.5 42.024 107.904 42.36 105.864 42.36ZM118.849 42V16.08H121.441V25.224C122.329 24.768 123.241 24.408 124.177 24.144C125.113 23.856 126.013 23.712 126.877 23.712C129.085 23.712 130.789 24.336 131.989 25.584C133.189 26.808 133.789 28.728 133.789 31.344V42H131.197V31.344C131.197 29.664 130.813 28.368 130.045 27.456C129.277 26.544 128.125 26.088 126.589 26.088C124.909 26.088 123.193 26.568 121.441 27.528V42H118.849ZM139.556 20.832V17.988H142.436V20.832H139.556ZM139.7 42V24.036H142.292V42H139.7ZM153.28 42.54C151.984 42.54 150.892 42.408 150.004 42.144C149.14 41.88 148.24 41.508 147.304 41.028V38.292C148.408 38.916 149.356 39.384 150.148 39.696C150.964 40.008 151.948 40.164 153.1 40.164C154.3 40.164 155.272 39.9 156.016 39.372C156.784 38.844 157.168 38.16 157.168 37.32C157.168 36.648 156.976 36.132 156.592 35.772C156.232 35.412 155.764 35.112 155.188 34.872C154.612 34.632 154.012 34.38 153.388 34.116C152.692 33.924 151.984 33.72 151.264 33.504C150.568 33.264 149.92 32.964 149.32 32.604C148.744 32.22 148.276 31.74 147.916 31.164C147.556 30.564 147.376 29.796 147.376 28.86C147.376 27.636 147.688 26.652 148.312 25.908C148.936 25.14 149.728 24.588 150.688 24.252C151.672 23.892 152.656 23.712 153.64 23.712C154.72 23.712 155.644 23.856 156.412 24.144C157.18 24.432 157.972 24.756 158.788 25.116V27.708C157.876 27.228 157.06 26.844 156.34 26.556C155.62 26.244 154.768 26.088 153.784 26.088C152.8 26.088 151.912 26.292 151.12 26.7C150.352 27.084 149.968 27.684 149.968 28.5C149.968 29.172 150.16 29.712 150.544 30.12C150.952 30.504 151.48 30.816 152.128 31.056C152.776 31.272 153.472 31.488 154.216 31.704C154.816 31.896 155.44 32.112 156.088 32.352C156.736 32.568 157.336 32.868 157.888 33.252C158.44 33.612 158.884 34.092 159.22 34.692C159.58 35.292 159.76 36.06 159.76 36.996C159.76 38.268 159.436 39.324 158.788 40.164C158.14 40.98 157.312 41.58 156.304 41.964C155.32 42.348 154.312 42.54 153.28 42.54ZM172.038 42.54C169.47 42.54 167.442 41.748 165.954 40.164C164.466 38.556 163.722 36.168 163.722 33C163.722 29.904 164.418 27.588 165.81 26.052C167.226 24.492 169.158 23.712 171.606 23.712C173.526 23.712 175.062 24.144 176.214 25.008C177.39 25.872 178.23 27.036 178.734 28.5C179.238 29.964 179.478 31.62 179.454 33.468H166.35C166.35 35.652 166.854 37.32 167.862 38.472C168.894 39.6 170.334 40.164 172.182 40.164C173.502 40.164 174.666 40.02 175.674 39.732C176.706 39.444 177.594 39.072 178.338 38.616V41.28C176.586 42.12 174.486 42.54 172.038 42.54ZM171.606 26.088C170.094 26.088 168.918 26.448 168.078 27.168C167.238 27.864 166.698 29.172 166.458 31.092H176.718C176.622 29.412 176.154 28.164 175.314 27.348C174.474 26.508 173.238 26.088 171.606 26.088ZM189.962 42.288C188.69 42.288 187.622 41.904 186.758 41.136C185.894 40.344 185.462 39.18 185.462 37.644V26.412H182.33V24.036H185.462V18.96H188.054V24.036H192.698V26.412H188.054V36.816C188.054 37.824 188.21 38.58 188.522 39.084C188.834 39.588 189.47 39.84 190.43 39.84C191.318 39.84 192.074 39.696 192.698 39.408V41.856C192.362 41.976 191.93 42.072 191.402 42.144C190.898 42.24 190.418 42.288 189.962 42.288ZM202.464 42.54C201.168 42.54 200.076 42.408 199.188 42.144C198.324 41.88 197.424 41.508 196.488 41.028V38.292C197.592 38.916 198.54 39.384 199.332 39.696C200.148 40.008 201.132 40.164 202.284 40.164C203.484 40.164 204.456 39.9 205.2 39.372C205.968 38.844 206.352 38.16 206.352 37.32C206.352 36.648 206.16 36.132 205.776 35.772C205.416 35.412 204.948 35.112 204.372 34.872C203.796 34.632 203.196 34.38 202.572 34.116C201.876 33.924 201.168 33.72 200.448 33.504C199.752 33.264 199.104 32.964 198.504 32.604C197.928 32.22 197.46 31.74 197.1 31.164C196.74 30.564 196.56 29.796 196.56 28.86C196.56 27.636 196.872 26.652 197.496 25.908C198.12 25.14 198.912 24.588 199.872 24.252C200.856 23.892 201.84 23.712 202.824 23.712C203.904 23.712 204.828 23.856 205.596 24.144C206.364 24.432 207.156 24.756 207.972 25.116V27.708C207.06 27.228 206.244 26.844 205.524 26.556C204.804 26.244 203.952 26.088 202.968 26.088C201.984 26.088 201.096 26.292 200.304 26.7C199.536 27.084 199.152 27.684 199.152 28.5C199.152 29.172 199.344 29.712 199.728 30.12C200.136 30.504 200.664 30.816 201.312 31.056C201.96 31.272 202.656 31.488 203.4 31.704C204 31.896 204.624 32.112 205.272 32.352C205.92 32.568 206.52 32.868 207.072 33.252C207.624 33.612 208.068 34.092 208.404 34.692C208.764 35.292 208.944 36.06 208.944 36.996C208.944 38.268 208.62 39.324 207.972 40.164C207.324 40.98 206.496 41.58 205.488 41.964C204.504 42.348 203.496 42.54 202.464 42.54ZM221.33 42.54C218.93 42.54 217.07 41.928 215.75 40.704C214.454 39.456 213.806 37.692 213.806 35.412V24.036H216.398V34.836C216.398 36.66 216.794 38.004 217.586 38.868C218.402 39.708 219.65 40.128 221.33 40.128C223.01 40.128 224.246 39.708 225.038 38.868C225.854 38.004 226.262 36.66 226.262 34.836V24.036H228.854V35.412C228.854 37.692 228.194 39.456 226.874 40.704C225.578 41.928 223.73 42.54 221.33 42.54ZM105.936 82L96.72 57.988H99.492L107.34 78.58L115.044 58.06L117.708 57.988L108.492 82H105.936ZM121.31 60.832V57.988H124.19V60.832H121.31ZM121.454 82V64.036H124.046V82H121.454ZM137.374 82.54C134.806 82.54 132.778 81.748 131.29 80.164C129.802 78.556 129.058 76.168 129.058 73C129.058 69.904 129.754 67.588 131.146 66.052C132.562 64.492 134.494 63.712 136.942 63.712C138.862 63.712 140.398 64.144 141.55 65.008C142.726 65.872 143.566 67.036 144.07 68.5C144.574 69.964 144.814 71.62 144.79 73.468H131.686C131.686 75.652 132.19 77.32 133.198 78.472C134.23 79.6 135.67 80.164 137.518 80.164C138.838 80.164 140.002 80.02 141.01 79.732C142.042 79.444 142.93 79.072 143.674 78.616V81.28C141.922 82.12 139.822 82.54 137.374 82.54ZM136.942 66.088C135.43 66.088 134.254 66.448 133.414 67.168C132.574 67.864 132.034 69.172 131.794 71.092H142.054C141.958 69.412 141.49 68.164 140.65 67.348C139.81 66.508 138.574 66.088 136.942 66.088ZM154.002 82L148.026 64.036H150.762L155.442 79.048L159.834 64.036H162.318L166.854 79.084L171.606 64.036H174.162L168.186 82H165.558L161.058 67.096L156.63 82H154.002ZM184.8 82.54C182.232 82.54 180.204 81.748 178.716 80.164C177.228 78.556 176.484 76.168 176.484 73C176.484 69.904 177.18 67.588 178.572 66.052C179.988 64.492 181.92 63.712 184.368 63.712C186.288 63.712 187.824 64.144 188.976 65.008C190.152 65.872 190.992 67.036 191.496 68.5C192 69.964 192.24 71.62 192.216 73.468H179.112C179.112 75.652 179.616 77.32 180.624 78.472C181.656 79.6 183.096 80.164 184.944 80.164C186.264 80.164 187.428 80.02 188.436 79.732C189.468 79.444 190.356 79.072 191.1 78.616V81.28C189.348 82.12 187.248 82.54 184.8 82.54ZM184.368 66.088C182.856 66.088 181.68 66.448 180.84 67.168C180 67.864 179.46 69.172 179.22 71.092H189.48C189.384 69.412 188.916 68.164 188.076 67.348C187.236 66.508 186 66.088 184.368 66.088ZM197.071 82V65.476C197.359 65.356 197.911 65.152 198.727 64.864C199.567 64.576 200.563 64.312 201.715 64.072C202.891 63.832 204.103 63.712 205.351 63.712C205.543 63.712 205.735 63.736 205.927 63.784C206.119 63.832 206.311 63.88 206.503 63.928V66.232C205.255 66.088 204.079 66.088 202.975 66.232C201.871 66.376 200.767 66.544 199.663 66.736V82H197.071Z" fill="white"/>
<path d="M63 63.5C61.5174 60.1145 59.8605 58.215 53 55H67.5C70.7363 58.9317 71.482 62.1922 71.5 66.5C71.3053 71.9062 70.4381 74.6014 68.5 78C65.0622 82.7547 62.1558 84.5542 57 86C51.188 87.4217 47.1185 87.3483 39 86.5C34.3274 85.4626 33.3891 84.9143 25 81V72.5C27.2203 74.1353 28.7224 74.993 31.5 76.5C37.0016 79.1224 40.4437 79.6626 49 80C56.2826 79.6194 59.8388 77.8186 62.5 73C63.8011 69.504 63.785 67.4 63 63.5Z" fill="white"/>
<path d="M34.8496 35C36.3049 39.8152 39.9777 41.649 48.8497 45H31.6491C29.4519 42.6385 28.0863 41.1078 26.8496 37C26.1219 32.8822 26.1894 30.6855 26.8496 27C28.2981 22.2793 29.7869 20.1405 33.3496 17C38.591 13.3424 45.0405 12.3509 52 13C59.8399 14.0171 61.5887 15.3743 67.3497 18V26C64.0398 24.17 62.4011 22.9408 56.8497 21C52.2341 19.4968 45.3603 19.7258 41.6491 21C35.9702 23.1231 33.0449 28.3057 34.8496 35Z" fill="white"/>
</svg>
